PathFileType	4	(X/Y/Z)	T1_P1_NoVision_NoMovement_4_0-615.trc
DataRate	CameraRate	NumFrames	NumMarkers	Units	OrigDataRate	OrigDataStartFrame	OrigNumFrames
60	60	7	27	m	60	384	615
Frame#	Time	RHip			RKnee			RAnkle			RBigToe			RSmallToe			RHeel			LHip			LKnee			LAnkle			LBigToe			LSmallToe			LHeel			Neck			Head			Nose			RShoulder			RElbow			RWrist			RThumb			RIndex			RPinky			LShoulder			LElbow			LWrist			LThumb			LIndex			LPinky		
		X1	Y1	Z1	X2	Y2	Z2	X3	Y3	Z3	X4	Y4	Z4	X5	Y5	Z5	X6	Y6	Z6	X7	Y7	Z7	X8	Y8	Z8	X9	Y9	Z9	X10	Y10	Z10	X11	Y11	Z11	X12	Y12	Z12	X13	Y13	Z13	X14	Y14	Z14	X15	Y15	Z15	X16	Y16	Z16	X17	Y17	Z17	X18	Y18	Z18	X19	Y19	Z19	X20	Y20	Z20	X21	Y21	Z21	X22	Y22	Z22	X23	Y23	Z23	X24	Y24	Z24	X25	Y25	Z25	X26	Y26	Z26	X27	Y27	Z27
385	6.416666666666667	-66.39289503992683	3789.189094310648	-546.0979220627714	291.6006099643304	3893.067404511063	-554.9194214607736	653.9416172879285	4184.497103560906	-594.5961247095662	710.3547258463835	3975.8345028671865	-501.7058653009519	725.2465790727761	4036.171476893869	-599.242643850984	690.090466093647	4202.990386490522	-563.0694725253454	-105.94063859117126	3900.9247944457848	-355.99132380174	236.82944444630235	4009.4973769189414	-360.91125240265785	587.9538762805549	4197.961770344329	-384.8855914002365	676.1755885043292	4132.340855986857	-329.24485466950773	637.835289233147	4138.547487283157	-291.1160031397986	623.1440240484346	4240.150025083012	-415.76358303154433	-656.2717279940391	3657.7903967375014	-469.4712988522761	-892.9583462201559	3503.259184149323	-414.80527510095493	-738.9944837244938	3524.3680225412736	-386.277914931144	-552.9877911923589	3635.086767926853	-622.9630065509766	-283.7239482199177	3733.83019830367	-689.9987032959057	-33.749910524808136	3675.3226321647703	-602.8360054501412	73.28215659173851	3791.530877065011	-573.9512395992526	93.0034109234276	3771.2484922822923	-569.7578543999205	84.15477728361188	3750.968132999361	-583.3211018073059	-605.456370269007	3758.451592901047	-343.813089946318	-386.51514759457336	3981.323315025	-338.7554753543348	-116.04233601108193	3956.332584566014	-303.59997272039857	20.826555306635363	3937.4882820985326	-329.5432830563238	33.30724355610269	3932.249581226134	-288.62376472648623	10.850965396465838	3999.4153262693476	-256.0995316702161
386	6.433333333333334	-66.39633513369964	3789.2236533307905	-546.1074894163253	290.70699059767736	3886.7698324306434	-553.3933232412019	653.2735925202483	4188.401097771056	-597.3667472960985	706.8790763355332	3965.943105855622	-498.03290359326417	722.7910246532492	4034.9236523118852	-599.4323510002458	690.0016697535248	4208.220010486174	-565.3619812335352	-105.54078097204764	3900.9154893906616	-355.9270069106397	236.01024170632184	4006.134685844473	-360.4899611563027	589.7334790608188	4201.708378957547	-387.07154744432626	675.5873735899262	4131.991367056931	-329.32769719057825	639.4263645718888	4138.957180176485	-289.9248807674217	626.0798970859753	4253.306736653438	-420.4380425576026	-658.2125984377346	3657.3424758023425	-470.34761931695016	-893.03917668463	3503.2457318572033	-413.47979829870656	-737.9216291499395	3525.118746369621	-386.5464440149064	-552.2859390362435	3635.3283274945948	-622.9840355827575	-282.9006036757173	3733.869649671796	-689.9524661021145	-34.27888117546945	3674.577423814918	-601.7579795720501	72.23207233249596	3790.6870017934616	-573.5001961728723	92.92307242957605	3770.9573497679903	-569.709051559996	84.08763783180395	3750.550804485961	-583.2270340437358	-606.0323938836232	3763.3759138879295	-347.34206791165593	-386.46965174997837	3981.306964459409	-338.692092341341	-116.11242629764978	3956.6522331706738	-303.6540612123871	22.286288907885748	3938.4413584066024	-329.99354334232453	33.73282722504383	3930.6766500701	-287.93582283913463	12.273140118043916	4000.752612300421	-257.2953064198897
387	6.45	-66.42705536727568	3789.172854589646	-546.066825679346	289.29846298077126	3881.5747921329585	-551.2549019514383	651.7145537530826	4187.407053376745	-597.1709060646517	703.5836916437439	3960.9695053024093	-495.9893585369381	719.7946557896361	4033.1453806365043	-599.0281875677296	688.4246456681287	4209.512655366438	-566.3396798947439	-105.92536742494845	3900.795746978097	-355.89431482130175	235.68204137104357	4001.538591326652	-359.67556896078776	589.6167202344939	4201.9937374900055	-387.25094149621697	675.4247505905173	4131.779323837963	-329.3354681985825	639.0997617417376	4138.923186460262	-289.391775418658	627.7018117984554	4262.795728546746	-423.6200198716375	-659.1912216608733	3656.8781452287276	-469.97814525061256	-893.0565065858748	3503.2505071007045	-413.3815443032042	-737.4310088553831	3525.4475706872217	-386.6649975122797	-551.7735503703611	3635.530122366243	-622.9883509804804	-282.37090001277187	3733.988791132057	-689.9778637448155	-34.051642748347675	3674.4618720468197	-601.5272290415943	72.11902808500898	3790.530115231734	-573.44546529967	92.8324235485635	3770.712485400831	-569.6487276100064	84.01801121803105	3750.7429442910093	-583.3322551578854	-606.2664249098711	3765.2999349647107	-348.7397601523407	-386.4670788125905	3981.341518570131	-338.85205329316847	-116.02569299896702	3956.840961527774	-303.7485825820101	22.882128555942355	3938.804161919134	-330.16976801484043	34.61628297453359	3930.6047305687284	-287.8219592721815	12.833659990521147	4001.3262930587052	-257.8205879511741
388	6.466666666666667	-66.4667981182011	3789.101446382847	-546.0084482039899	288.67984827830765	3880.379441945899	-550.6565784190595	649.4202108888561	4183.358270508484	-595.1762298061531	702.0155290238986	3959.6642189231966	-495.4629179491336	718.2126213137974	4032.0742114187924	-598.6030584329903	687.0260148345063	4208.879688021001	-567.5464174678863	-106.86836277158523	3900.655700926079	-355.9115647107154	235.15975662402582	3998.6032336785465	-359.1486158496692	588.9350349587005	4200.611914413258	-386.44626197049143	675.463267600157	4131.737689466179	-329.351723623092	637.8732088864776	4138.859195757529	-290.02138207686636	628.1423581792864	4265.714280900305	-425.25111860813007	-659.2745049729705	3656.3695528124445	-468.16929485503044	-893.0355215046332	3503.282902575337	-414.1391518167958	-737.4369883568595	3525.4276946994896	-386.6585359987717	-551.5471009123047	3635.64345991735	-622.985450309974	-282.24348901584034	3734.1182373848487	-690.0354157175658	-33.222142227345834	3675.0417600018573	-601.3425367008572	72.69973529095863	3790.920426968026	-573.7481720175223	92.76792413605503	3771.328466248059	-569.7733306839446	84.0034486130069	3753.442547136618	-583.9848013050403	-606.2789624369856	3765.2928378244246	-348.7567012066976	-386.4651876191799	3981.5543894234133	-339.518376709018	-115.43087411375008	3957.2657386616793	-304.01308662938027	22.88382277222229	3938.7727193482833	-330.00369650478393	35.30727794485365	3931.197618675222	-288.368505024495	12.824425509030775	4001.33022604867	-257.74602121315763
389	6.483333333333333	-66.48684937425651	3789.0499879896474	-545.9625209459043	289.08328534125314	3880.694665059144	-550.5703388557928	647.9803640800301	4180.9071678611	-594.1554820330833	701.809085405694	3957.7515561659907	-495.43555556116235	718.325782138392	4032.0351439789483	-598.5765291900816	686.5449074515979	4208.137607278372	-569.3284948161954	-107.7882810062443	3900.563367373631	-355.95852033766386	234.51139801210462	3998.542429769546	-359.1877659789222	588.564120110378	4198.080190034809	-384.8674114121623	675.5437714605048	4131.925055568491	-329.4214628297577	636.8746827535348	4139.701721426507	-291.5895746208744	627.4058154981238	4260.465163957677	-424.802759484548	-658.7872719069782	3655.927814174934	-465.8853019321637	-893.0170976210865	3503.3481252660577	-414.8486047858742	-737.9393149366588	3525.074470427499	-386.5304256469768	-551.590922004218	3635.6429999484726	-622.9725783182924	-282.29467589991947	3734.219313090645	-690.0814394020588	-32.24009327669428	3675.952267987269	-601.0692093322596	73.197176861455	3791.312341892826	-574.100087219511	92.90356488736438	3773.84524490431	-570.3539131834233	84.18664791253435	3757.4223955312823	-584.9306671376008	-606.2277744806192	3764.8263805004935	-348.4333928196167	-386.43380219283125	3981.909329168808	-340.54768964502165	-114.16818187261697	3958.171455954373	-304.43870171645295	22.690353296505922	3938.5496422891133	-329.3589218343097	35.579204165203656	3931.6835613899966	-288.80550090166753	12.603499129628489	4000.9284006722073	-256.79701859885427
390	6.5	-66.46920625701269	3789.0036999461036	-545.9409352704572	289.55114577782064	3879.6504689242693	-549.4877892877854	648.2878759764275	4182.539422805423	-595.4446205777701	701.8020146691537	3955.046766194672	-495.762523256749	718.6761082271596	4032.1424784046967	-598.6571449380147	686.526751417333	4207.705143968114	-570.8003358206556	-108.23314822566618	3900.5138406776305	-355.9963818957193	234.1099286689058	3998.9516429292444	-359.3128682154865	588.0035211095142	4194.5268964825145	-382.6575247945427	675.5796246873426	4132.224148706213	-329.5173520510421	635.9172047318013	4142.05485464507	-293.9579811448344	625.0730183188502	4245.770975381451	-420.6113524776127	-657.9484054421055	3655.893376214186	-464.82139235907385	-893.0043548641427	3503.429964368584	-415.2263634423652	-739.0290454102797	3524.3316919261274	-386.2676575793619	-552.1645211986089	3635.455348643726	-622.9775438772207	-282.35241911679236	3734.289901390885	-690.1155385019141	-31.290644460010522	3676.936594584445	-601.1382915930199	73.3669860091033	3791.5102662318413	-574.1884669574797	93.54314181003537	3777.566213186132	-571.2066986795174	84.82789868165325	3760.0041362125385	-585.5411448073626	-606.1840752499045	3764.5602104756363	-348.24079213449545	-386.3983110983868	3982.0872334785327	-341.07887319619266	-112.8664687015743	3959.1029769825805	-304.6269426025755	22.51281761215062	3938.2564185447195	-328.39417954796664	35.401892730020556	3931.692558199739	-288.5071170874293	12.316035212144651	4000.1587636080994	-254.7145991240192
391	6.516666666666667	-66.4233283181954	3788.95469194915	-545.9492252024112	289.1008566792441	3876.4687019218936	-547.0400396688883	649.130297182502	4185.423398904465	-597.5257282487236	701.2921661285571	3953.3747572482534	-496.267484809058	718.2014179089316	4031.6678038889886	-598.441300323486	686.5543630680867	4207.550068446592	-571.6058390131844	-108.27418743179486	3900.483087874366	-356.0201833062897	233.98675683000326	3998.852137405753	-359.3316676909538	587.1396447843159	4192.27392474052	-381.35838089999993	675.5091381172547	4132.422666963326	-329.58658142919455	634.7394728064844	4145.378902838179	-296.7091396817446	621.7631625224265	4226.393776106339	-413.70556853552404	-657.0629749311947	3656.3936941253824	-465.8569789082131	-892.9608669318798	3503.4828153766457	-415.82801177016046	-740.4194919606698	3523.39432167439	-385.94732683596266	-553.5196982305849	3635.0531728105725	-623.0539676773418	-282.3722937112907	3734.3469719124723	-690.155076890756	-30.277298908651126	3677.7743209866194	-601.5364618373171	73.81170007518244	3791.893522249763	-573.7469639582849	94.74833219197082	3779.1431265024507	-571.4913411521883	86.00562366603253	3760.7730934527917	-585.6935321277767	-606.1657144918181	3764.528469241899	-348.21184722458975	-386.40324236228594	3981.873033482411	-340.5289106411319	-112.47300055499556	3959.354764865707	-304.02714287087986	22.463978132999618	3938.103501805096	-327.8923792274778	34.772230012887476	3931.3675396240997	-288.2062836135014	12.051348153119228	3999.3439266671376	-252.28751002349713
